# xmcd
#
# Track frame offsets: 
#        150
#        16160
#        38254
#        52610
#        67228
#        85839
#        101050
#        114730
#        130192
#        144934
#        162635
#        175062
#        191754
#        207385
#        216973
#        230000
#        245488
#        265249
#        284156
#        310123
#
# Disc length: 4435 seconds
#
# Revision: 0
# Processed by: cddbd v1.5.2PL0 Copyright (c) Steve Scherf et al.
# Submitted via: ExactAudioCopy v0.95a5
#
DISCID=26115114
DTITLE=刘欢 - 刘欢・1986-2002经典辑 [CD1)
DYEAR=1900
DGENRE=Vocal
TTITLE0=心中的太阳
TTITLE1=又见彩虹
TTITLE2=好汉歌
TTITLE3=昨天下了一夜雨
TTITLE4=天地在我心
TTITLE5=我欲成仙
TTITLE6=你这样的人
TTITLE7=笑傲江湖
TTITLE8=人心无穷大
TTITLE9=人生无悔
TTITLE10=公道在人间
TTITLE11=爱之无奈
TTITLE12=去者
TTITLE13=世界需要热心肠
TTITLE14=报应
TTITLE15=这一拜
TTITLE16=蒙古姑娘
TTITLE17=过把瘾
TTITLE18=绿叶对根的情意
TTITLE19=亚洲雄风
EXTD=
EXTT0=
EXTT1=
EXTT2=
EXTT3=
EXTT4=
EXTT5=
EXTT6=
EXTT7=
EXTT8=
EXTT9=
EXTT10=
EXTT11=
EXTT12=
EXTT13=
EXTT14=
EXTT15=
EXTT16=
EXTT17=
EXTT18=
EXTT19=
PLAYORDER=
